<svg id="Icon_ionic-ios-arrow-dropleft" data-name="Icon ionic-ios-arrow-dropleft" xmlns="http://www.w3.org/2000/svg" width="100" height="100" viewBox="0 0 100 100">
  <path id="Path_8" data-name="Path 8" d="M13.538,11.337a4.666,4.666,0,0,1,6.574,0L43.085,34.383a4.643,4.643,0,0,1,.144,6.406L20.593,63.5a4.64,4.64,0,1,1-6.574-6.55L33.236,37.441,13.514,17.911A4.644,4.644,0,0,1,13.538,11.337Z" transform="translate(25.642 12.647)" fill="#0079d7"/>
  <path id="Path_9" data-name="Path 9" d="M53.463,3.375A50.088,50.088,0,1,1,3.375,53.463,50.081,50.081,0,0,1,53.463,3.375ZM23.507,83.42A42.365,42.365,0,1,0,83.42,23.507,42.365,42.365,0,1,0,23.507,83.42Z" transform="translate(-3.375 -3.375)" fill="#0079d7"/>
</svg>
