<svg xmlns="http://www.w3.org/2000/svg" width="100.177" height="100.177" viewBox="0 0 100.177 100.177">
  <g id="Icon_ionic-ios-arrow-dropleft" data-name="Icon ionic-ios-arrow-dropleft" transform="translate(-3.375 -3.375)">
    <path id="Path_8" data-name="Path 8" d="M43.065,11.337a4.666,4.666,0,0,0-6.574,0L13.518,34.383a4.643,4.643,0,0,0-.144,6.406L36.009,63.5a4.64,4.64,0,1,0,6.574-6.55L23.367,37.441l19.722-19.53A4.644,4.644,0,0,0,43.065,11.337Z" transform="translate(21.307 16.022)" fill="#0079d7"/>
    <path id="Path_9" data-name="Path 9" d="M53.463,3.375a50.088,50.088,0,1,0,50.088,50.088A50.081,50.081,0,0,0,53.463,3.375ZM83.42,83.42A42.365,42.365,0,1,1,23.507,23.507,42.365,42.365,0,1,1,83.42,83.42Z" transform="translate(0)" fill="#0079d7"/>
  </g>
</svg>
